<svg width="20" height="20" viewBox="0 0 22 17" fill="none" xmlns="http://www.w3.org/2000/svg">
<path d="M18.1106 0.735621C18.4715 0.391961 18.9519 0.201973 19.4503 0.205744C19.9487 0.209515 20.4261 0.406751 20.7818 0.755833C21.1376 1.10492 21.3438 1.57854 21.357 2.07677C21.3701 2.57499 21.1892 3.05885 20.8524 3.42625L10.6281 16.2131C10.4523 16.4025 10.2401 16.5545 10.0042 16.6599C9.7683 16.7654 9.51357 16.8223 9.25521 16.827C8.99686 16.8318 8.7402 16.7845 8.50057 16.6878C8.26094 16.5911 8.04327 16.4471 7.86057 16.2644L1.0802 9.484C0.891374 9.30805 0.739924 9.09587 0.634882 8.86013C0.529841 8.62438 0.473358 8.36989 0.468805 8.11184C0.464252 7.85378 0.511722 7.59746 0.608382 7.35815C0.705042 7.11884 0.848913 6.90146 1.03141 6.71896C1.21391 6.53646 1.4313 6.39259 1.6706 6.29593C1.90991 6.19927 2.16623 6.1518 2.42429 6.15635C2.68234 6.16091 2.93683 6.21739 3.17258 6.32243C3.40832 6.42747 3.6205 6.57892 3.79645 6.76775L9.16232 12.1311L18.0619 0.791997C18.0779 0.772268 18.095 0.753446 18.1131 0.735621H18.1106Z" fill="#ED7D31"/>
</svg>
