<svg width="35" height="35" viewBox="0 0 35 35" fill="none" xmlns="http://www.w3.org/2000/svg">
<path d="M6.5625 31.7188C5.69226 31.7188 4.85766 31.373 4.24231 30.7577C3.62695 30.1423 3.28125 29.3077 3.28125 28.4375V6.5625C3.28125 5.69226 3.62695 4.85766 4.24231 4.24231C4.85766 3.62695 5.69226 3.28125 6.5625 3.28125H24.0625C24.3526 3.28125 24.6308 3.39648 24.8359 3.6016C25.041 3.80672 25.1562 4.08492 25.1562 4.375C25.1562 4.66508 25.041 4.94328 24.8359 5.1484C24.6308 5.35352 24.3526 5.46875 24.0625 5.46875H6.5625C6.27242 5.46875 5.99422 5.58398 5.7891 5.7891C5.58398 5.99422 5.46875 6.27242 5.46875 6.5625V28.4375C5.46875 28.7276 5.58398 29.0058 5.7891 29.2109C5.99422 29.416 6.27242 29.5312 6.5625 29.5312H28.4375C28.7276 29.5312 29.0058 29.416 29.2109 29.2109C29.416 29.0058 29.5312 28.7276 29.5312 28.4375V17.5C29.5312 17.2099 29.6465 16.9317 29.8516 16.7266C30.0567 16.5215 30.3349 16.4062 30.625 16.4062C30.9151 16.4062 31.1933 16.5215 31.3984 16.7266C31.6035 16.9317 31.7188 17.2099 31.7188 17.5V28.4375C31.7188 29.3077 31.373 30.1423 30.7577 30.7577C30.1423 31.373 29.3077 31.7188 28.4375 31.7188H6.5625Z" fill="white"/>
<path d="M18.2743 22.6493L33.5868 7.33679C33.6885 7.2351 33.7692 7.11437 33.8242 6.98151C33.8792 6.84864 33.9075 6.70623 33.9075 6.56242C33.9075 6.4186 33.8792 6.2762 33.8242 6.14333C33.7692 6.01046 33.6885 5.88973 33.5868 5.78804C33.4851 5.68635 33.3644 5.60568 33.2315 5.55065C33.0986 5.49561 32.9562 5.46729 32.8124 5.46729C32.6686 5.46729 32.5262 5.49561 32.3933 5.55065C32.2605 5.60568 32.1397 5.68635 32.038 5.78804L17.4999 20.3284L11.7118 14.538C11.6101 14.4363 11.4894 14.3557 11.3565 14.3006C11.2236 14.2456 11.0812 14.2173 10.9374 14.2173C10.7936 14.2173 10.6512 14.2456 10.5183 14.3006C10.3855 14.3557 10.2647 14.4363 10.163 14.538C10.0613 14.6397 9.98068 14.7605 9.92565 14.8933C9.87061 15.0262 9.84229 15.1686 9.84229 15.3124C9.84229 15.4562 9.87061 15.5986 9.92565 15.7315C9.98068 15.8644 10.0613 15.9851 10.163 16.0868L16.7255 22.6493C16.8271 22.7511 16.9478 22.832 17.0807 22.8871C17.2136 22.9422 17.3561 22.9706 17.4999 22.9706C17.6438 22.9706 17.7862 22.9422 17.9191 22.8871C18.052 22.832 18.1727 22.7511 18.2743 22.6493Z" fill="white"/>
</svg>
