<svg width="29" height="30" viewBox="0 0 29 30" fill="none" xmlns="http://www.w3.org/2000/svg">
<path d="M6.54611 0.408562H4.52065C3.44628 0.408562 2.41591 0.835354 1.65622 1.59505C0.896519 2.35475 0.469727 3.38512 0.469727 4.45949V25.7268C0.469727 26.8012 0.896519 27.8316 1.65622 28.5913C2.41591 29.351 3.44628 29.7778 4.52065 29.7778H24.7753C25.8497 29.7778 26.88 29.351 27.6397 28.5913C28.3994 27.8316 28.8262 26.8012 28.8262 25.7268V4.45949C28.8262 3.38512 28.3994 2.35475 27.6397 1.59505C26.88 0.835354 25.8497 0.408562 24.7753 0.408562H22.7498V2.43402H24.7753C25.3125 2.43402 25.8277 2.64742 26.2075 3.02727C26.5873 3.40712 26.8007 3.9223 26.8007 4.45949V25.7268C26.8007 26.264 26.5873 26.7792 26.2075 27.1591C25.8277 27.5389 25.3125 27.7523 24.7753 27.7523H4.52065C3.98347 27.7523 3.46828 27.5389 3.08843 27.1591C2.70859 26.7792 2.49519 26.264 2.49519 25.7268V4.45949C2.49519 3.9223 2.70859 3.40712 3.08843 3.02727C3.46828 2.64742 3.98347 2.43402 4.52065 2.43402H6.54611V0.408562Z" fill="white"/>
</svg>
