<svg width="25" height="25" viewBox="0 0 41 41" fill="none" xmlns="http://www.w3.org/2000/svg">
<path d="M22.9856 12.7356C23.3465 12.392 23.8269 12.202 24.3253 12.2057C24.8237 12.2095 25.3011 12.4068 25.6568 12.7558C26.0126 13.1049 26.2188 13.5785 26.232 14.0768C26.2451 14.575 26.0642 15.0589 25.7274 15.4263L15.5031 28.2131C15.3273 28.4025 15.1151 28.5545 14.8792 28.6599C14.6433 28.7654 14.3886 28.8223 14.1302 28.827C13.8719 28.8318 13.6152 28.7845 13.3756 28.6878C13.1359 28.5911 12.9183 28.4471 12.7356 28.2644L5.9552 21.484C5.76637 21.3081 5.61492 21.0959 5.50988 20.8601C5.40484 20.6244 5.34836 20.3699 5.3438 20.1118C5.33925 19.8538 5.38672 19.5975 5.48338 19.3582C5.58004 19.1188 5.72391 18.9015 5.90641 18.719C6.08891 18.5365 6.30629 18.3926 6.5456 18.2959C6.78491 18.1993 7.04123 18.1518 7.29928 18.1564C7.55734 18.1609 7.81183 18.2174 8.04758 18.3224C8.28332 18.4275 8.4955 18.5789 8.67145 18.7678L14.0373 24.1311L22.9343 12.792C22.9503 12.7722 22.9674 12.7534 22.9856 12.7356ZM20.6281 25.9069L22.9856 28.2644C23.1682 28.4467 23.3857 28.5904 23.6251 28.6868C23.8645 28.7833 24.1209 28.8305 24.3789 28.8257C24.637 28.8209 24.8914 28.7642 25.127 28.659C25.3627 28.5537 25.5747 28.4021 25.7505 28.2131L35.98 15.4263C36.1638 15.2448 36.3091 15.0282 36.4073 14.7894C36.5055 14.5506 36.5545 14.2944 36.5515 14.0362C36.5485 13.778 36.4935 13.523 36.3898 13.2866C36.286 13.0501 36.1357 12.8369 35.9478 12.6599C35.7598 12.4828 35.5381 12.3454 35.2959 12.2559C35.0537 12.1664 34.7959 12.1266 34.538 12.1389C34.28 12.1513 34.0272 12.2154 33.7947 12.3277C33.5621 12.4399 33.3545 12.5978 33.1843 12.792L24.2848 24.1311L23.0419 22.8857L20.6255 25.9069H20.6281Z" fill="#0075C1"/>
</svg>
