<svg width="18" height="18" viewBox="0 0 18 18" fill="none" xmlns="http://www.w3.org/2000/svg">
<g clip-path="url(#clip0_169_1716)">
<path d="M8.93016 2.26801C8.95221 2.25592 8.97701 2.24972 9.00216 2.25001C9.02693 2.24991 9.05131 2.2561 9.07303 2.26801C9.09876 2.28343 9.11977 2.30561 9.13378 2.33213L16.8479 15.4575C16.8884 15.525 16.8873 15.597 16.8502 15.6634C16.8359 15.6906 16.815 15.7138 16.7894 15.7309C16.7671 15.7445 16.7413 15.7512 16.7152 15.75H1.28916C1.26304 15.7513 1.23716 15.7446 1.21491 15.7309C1.18932 15.7138 1.16843 15.6906 1.15416 15.6634C1.13562 15.6322 1.12602 15.5964 1.12642 15.5601C1.12682 15.5238 1.13719 15.4883 1.15641 15.4575L8.86941 2.33213C8.88347 2.30564 8.90447 2.28348 8.93016 2.26801ZM10.1047 1.76176C9.9933 1.56777 9.83272 1.40659 9.63914 1.29451C9.44556 1.18243 9.22584 1.12341 9.00216 1.12341C8.77847 1.12341 8.55875 1.18243 8.36518 1.29451C8.1716 1.40659 8.01102 1.56777 7.89966 1.76176L0.185534 14.8871C-0.328591 15.7624 0.287909 16.875 1.28803 16.875H16.7152C17.7153 16.875 18.3329 15.7613 17.8177 14.8871L10.1047 1.76176Z" fill="black"/>
<path d="M7.8772 13.5C7.8772 13.3523 7.9063 13.206 7.96283 13.0695C8.01937 12.933 8.10224 12.809 8.2067 12.7045C8.31117 12.6 8.43519 12.5172 8.57168 12.4606C8.70817 12.4041 8.85446 12.375 9.0022 12.375C9.14993 12.375 9.29623 12.4041 9.43272 12.4606C9.56921 12.5172 9.69323 12.6 9.79769 12.7045C9.90216 12.809 9.98503 12.933 10.0416 13.0695C10.0981 13.206 10.1272 13.3523 10.1272 13.5C10.1272 13.7984 10.0087 14.0845 9.79769 14.2955C9.58671 14.5065 9.30057 14.625 9.0022 14.625C8.70383 14.625 8.41768 14.5065 8.2067 14.2955C7.99572 14.0845 7.8772 13.7984 7.8772 13.5ZM7.98745 6.74438C7.97247 6.60246 7.98749 6.45896 8.03155 6.32322C8.0756 6.18747 8.14771 6.0625 8.24318 5.95642C8.33865 5.85034 8.45536 5.76552 8.58573 5.70745C8.71611 5.64939 8.85723 5.61938 8.99995 5.61938C9.14266 5.61938 9.28379 5.64939 9.41416 5.70745C9.54453 5.76552 9.66124 5.85034 9.75671 5.95642C9.85219 6.0625 9.92429 6.18747 9.96835 6.32322C10.0124 6.45896 10.0274 6.60246 10.0124 6.74438L9.6187 10.6898C9.60547 10.8448 9.53455 10.9891 9.41997 11.0944C9.3054 11.1996 9.1555 11.2579 8.99995 11.2579C8.84439 11.2579 8.6945 11.1996 8.57992 11.0944C8.46534 10.9891 8.39443 10.8448 8.3812 10.6898L7.98745 6.74438Z" fill="black"/>
</g>
<defs>
<clipPath id="clip0_169_1716">
<rect width="18" height="18" fill="white"/>
</clipPath>
</defs>
</svg>
