<svg width="38" height="38" viewBox="0 0 38 38" fill="none" xmlns="http://www.w3.org/2000/svg">
<path fill-rule="evenodd" clip-rule="evenodd" d="M11.875 27.3125C11.875 26.9976 12.0001 26.6955 12.2228 26.4728C12.4455 26.2501 12.7476 26.125 13.0625 26.125H34.4375C34.7524 26.125 35.0545 26.2501 35.2772 26.4728C35.4999 26.6955 35.625 26.9976 35.625 27.3125C35.625 27.6274 35.4999 27.9295 35.2772 28.1522C35.0545 28.3749 34.7524 28.5 34.4375 28.5H13.0625C12.7476 28.5 12.4455 28.3749 12.2228 28.1522C12.0001 27.9295 11.875 27.6274 11.875 27.3125ZM11.875 17.8125C11.875 17.4976 12.0001 17.1955 12.2228 16.9728C12.4455 16.7501 12.7476 16.625 13.0625 16.625H34.4375C34.7524 16.625 35.0545 16.7501 35.2772 16.9728C35.4999 17.1955 35.625 17.4976 35.625 17.8125C35.625 18.1274 35.4999 18.4295 35.2772 18.6522C35.0545 18.8749 34.7524 19 34.4375 19H13.0625C12.7476 19 12.4455 18.8749 12.2228 18.6522C12.0001 18.4295 11.875 18.1274 11.875 17.8125ZM11.875 8.3125C11.875 7.99756 12.0001 7.69551 12.2228 7.47281C12.4455 7.25011 12.7476 7.125 13.0625 7.125H34.4375C34.7524 7.125 35.0545 7.25011 35.2772 7.47281C35.4999 7.69551 35.625 7.99756 35.625 8.3125C35.625 8.62744 35.4999 8.92949 35.2772 9.15219C35.0545 9.37489 34.7524 9.5 34.4375 9.5H13.0625C12.7476 9.5 12.4455 9.37489 12.2228 9.15219C12.0001 8.92949 11.875 8.62744 11.875 8.3125Z" fill="white"/>
<path d="M4.06838 28.1793V27.0536H4.75C5.26537 27.0536 5.61212 26.7282 5.61212 26.3007C5.61212 25.8613 5.23688 25.5645 4.75475 25.5645C4.22513 25.5645 3.88312 25.9255 3.86887 26.3007H2.46763C2.50563 25.1916 3.3535 24.4316 4.80938 24.4316C6.20588 24.4268 7.07513 25.1227 7.08225 26.1012C7.08675 26.4368 6.97164 26.7631 6.75754 27.0216C6.54344 27.2801 6.24433 27.4539 5.91375 27.512V27.5903C6.28855 27.6183 6.63815 27.7896 6.88984 28.0688C7.14153 28.3479 7.27594 28.7133 7.26513 29.089C7.27225 30.3548 6.07287 30.989 4.769 30.989C3.211 30.989 2.394 30.1102 2.375 29.1032H3.75725C3.77625 29.526 4.199 29.83 4.7595 29.8371C5.36275 29.8371 5.7665 29.4927 5.76175 29.0058C5.757 28.5427 5.39363 28.1793 4.7785 28.1793H4.066H4.06838ZM4.05887 17.0192H2.62438V16.9361C2.62438 15.9671 3.325 14.9316 4.89962 14.9316C6.28425 14.9316 7.17963 15.7058 7.17963 16.7271C7.17963 17.651 6.56925 18.1925 6.04912 18.7411L4.77375 20.0996V20.1708H7.277V21.375H2.71463V20.4368L4.9875 18.0856C5.31525 17.7483 5.68337 17.3636 5.68337 16.8791C5.68337 16.4516 5.33425 16.1191 4.87113 16.1191C4.76421 16.1152 4.65762 16.1332 4.55793 16.172C4.45824 16.2108 4.36755 16.2697 4.29146 16.3449C4.21536 16.4201 4.15547 16.5101 4.11547 16.6093C4.07547 16.7085 4.05621 16.8149 4.05887 16.9218V17.0192ZM6.0895 11.875H4.58138V6.94446H4.50775L3.0875 7.94196V6.59534L4.58138 5.54321H6.0895V11.875Z" fill="white"/>
</svg>
