<svg width="32" height="32" viewBox="0 0 32 32" fill="none" xmlns="http://www.w3.org/2000/svg">
<path d="M31.0039 3.88005C31.1908 4.0675 31.2957 4.32138 31.2957 4.58605C31.2957 4.85073 31.1908 5.10461 31.0039 5.29205L28.9179 7.38005L24.9179 3.38005L27.0039 1.29205C27.1915 1.10458 27.4458 0.999268 27.7109 0.999268C27.9761 0.999268 28.2304 1.10458 28.4179 1.29205L31.0039 3.87805V3.88005ZM27.5039 8.79205L23.5039 4.79205L9.87792 18.4201C9.76784 18.5301 9.68498 18.6643 9.63592 18.8121L8.02592 23.6401C7.99672 23.7281 7.99258 23.8225 8.01395 23.9127C8.03532 24.003 8.08136 24.0855 8.14694 24.151C8.21251 24.2166 8.29502 24.2627 8.38526 24.284C8.4755 24.3054 8.5699 24.3013 8.65792 24.2721L13.4859 22.6621C13.6334 22.6136 13.7677 22.5314 13.8779 22.4221L27.5039 8.79405V8.79205Z" fill="white"/>
<path fill-rule="evenodd" clip-rule="evenodd" d="M2 27C2 27.7956 2.31607 28.5587 2.87868 29.1213C3.44129 29.6839 4.20435 30 5 30H27C27.7956 30 28.5587 29.6839 29.1213 29.1213C29.6839 28.5587 30 27.7956 30 27V15C30 14.7348 29.8946 14.4804 29.7071 14.2929C29.5196 14.1054 29.2652 14 29 14C28.7348 14 28.4804 14.1054 28.2929 14.2929C28.1054 14.4804 28 14.7348 28 15V27C28 27.2652 27.8946 27.5196 27.7071 27.7071C27.5196 27.8946 27.2652 28 27 28H5C4.73478 28 4.48043 27.8946 4.29289 27.7071C4.10536 27.5196 4 27.2652 4 27V5C4 4.73478 4.10536 4.48043 4.29289 4.29289C4.48043 4.10536 4.73478 4 5 4H18C18.2652 4 18.5196 3.89464 18.7071 3.70711C18.8946 3.51957 19 3.26522 19 3C19 2.73478 18.8946 2.48043 18.7071 2.29289C18.5196 2.10536 18.2652 2 18 2H5C4.20435 2 3.44129 2.31607 2.87868 2.87868C2.31607 3.44129 2 4.20435 2 5V27Z" fill="white"/>
</svg>
