<svg width="32" height="30" viewBox="0 0 32 30" fill="none" xmlns="http://www.w3.org/2000/svg">
<path fill-rule="evenodd" clip-rule="evenodd" d="M23 29C23.2653 29 23.5196 28.8946 23.7071 28.7071C23.8947 28.5196 24 28.2652 24 28V4.41399L30.292 10.708C30.4798 10.8958 30.7345 11.0013 31 11.0013C31.2656 11.0013 31.5203 10.8958 31.708 10.708C31.8958 10.5202 32.0013 10.2655 32.0013 9.99999C32.0013 9.73444 31.8958 9.47976 31.708 9.29199L23.708 1.29199C23.6152 1.19886 23.5048 1.12497 23.3833 1.07456C23.2618 1.02415 23.1316 0.998199 23 0.998199C22.8685 0.998199 22.7383 1.02415 22.6168 1.07456C22.4953 1.12497 22.3849 1.19886 22.292 1.29199L14.292 9.29199C14.1043 9.47976 13.9988 9.73444 13.9988 9.99999C13.9988 10.2655 14.1043 10.5202 14.292 10.708C14.4798 10.8958 14.7345 11.0013 15 11.0013C15.2656 11.0013 15.5203 10.8958 15.708 10.708L22 4.41399V28C22 28.2652 22.1054 28.5196 22.2929 28.7071C22.4805 28.8946 22.7348 29 23 29ZM9.00004 0.999987C9.26526 0.999987 9.51961 1.10534 9.70715 1.29288C9.89469 1.48042 10 1.73477 10 1.99999V25.586L16.292 19.292C16.4798 19.1042 16.7345 18.9987 17 18.9987C17.2656 18.9987 17.5203 19.1042 17.708 19.292C17.8958 19.4798 18.0013 19.7344 18.0013 20C18.0013 20.2655 17.8958 20.5202 17.708 20.708L9.70804 28.708C9.61515 28.8011 9.5048 28.875 9.38331 28.9254C9.26182 28.9758 9.13158 29.0018 9.00004 29.0018C8.86851 29.0018 8.73827 28.9758 8.61678 28.9254C8.49529 28.875 8.38493 28.8011 8.29204 28.708L0.292042 20.708C0.104269 20.5202 -0.00122071 20.2655 -0.0012207 20C-0.0012207 19.7344 0.104269 19.4798 0.292042 19.292C0.479816 19.1042 0.734491 18.9987 1.00004 18.9987C1.26559 18.9987 1.52027 19.1042 1.70804 19.292L8.00004 25.586V1.99999C8.00004 1.73477 8.1054 1.48042 8.29294 1.29288C8.48047 1.10534 8.73483 0.999987 9.00004 0.999987Z" fill="white"/>
</svg>
