<svg width="29" height="33" viewBox="0 0 29 33" fill="none" xmlns="http://www.w3.org/2000/svg">
<path d="M11.6098 2.39558H17.6862C17.9548 2.39558 18.2123 2.50228 18.4023 2.6922C18.5922 2.88213 18.6989 3.13972 18.6989 3.40831V5.43377H10.597V3.40831C10.597 3.13972 10.7037 2.88213 10.8937 2.6922C11.0836 2.50228 11.3412 2.39558 11.6098 2.39558ZM20.7244 5.43377V3.40831C20.7244 2.60253 20.4043 1.82976 19.8345 1.25998C19.2647 0.690212 18.4919 0.370117 17.6862 0.370117L11.6098 0.370117C10.804 0.370117 10.0312 0.690212 9.46144 1.25998C8.89167 1.82976 8.57158 2.60253 8.57158 3.40831V5.43377H3.52007C3.51332 5.43372 3.50657 5.43372 3.49982 5.43377H1.48246C1.21386 5.43377 0.956273 5.54047 0.766349 5.7304C0.576425 5.92032 0.469727 6.17791 0.469727 6.44651C0.469727 6.7151 0.576425 6.97269 0.766349 7.16261C0.956273 7.35254 1.21386 7.45924 1.48246 7.45924H2.57216L4.29988 29.0507C4.38135 30.0658 4.8422 31.013 5.59065 31.7037C6.3391 32.3943 7.32023 32.7777 8.33865 32.7775H20.9573C21.9757 32.7777 22.9568 32.3943 23.7053 31.7037C24.4537 31.013 24.9146 30.0658 24.9961 29.0507L26.7238 7.45924H27.8135C28.0821 7.45924 28.3397 7.35254 28.5296 7.16261C28.7195 6.97269 28.8262 6.7151 28.8262 6.44651C28.8262 6.17791 28.7195 5.92032 28.5296 5.7304C28.3397 5.54047 28.0821 5.43377 27.8135 5.43377H25.7981C25.7914 5.43372 25.7846 5.43372 25.7779 5.43377H20.7244ZM24.6902 7.45924L22.9767 28.8886C22.9359 29.3962 22.7055 29.8698 22.3313 30.2151C21.9571 30.5605 21.4665 30.7522 20.9573 30.7521H8.33865C7.82944 30.7522 7.33888 30.5605 6.96465 30.2151C6.59043 29.8698 6.36 29.3962 6.31926 28.8886L4.60572 7.45924H24.6902ZM9.52557 9.4847C9.79361 9.46921 10.0568 9.56078 10.2574 9.73929C10.4579 9.91781 10.5794 10.1686 10.595 10.4367L11.6077 27.6531C11.6184 27.918 11.5247 28.1765 11.3469 28.3731C11.1691 28.5697 10.9212 28.6887 10.6566 28.7047C10.392 28.7206 10.1317 28.6321 9.93156 28.4582C9.73145 28.2843 9.60751 28.0389 9.58634 27.7746L8.57158 10.5582C8.56335 10.4251 8.58148 10.2918 8.62491 10.1658C8.66834 10.0397 8.73622 9.92352 8.82467 9.82379C8.91311 9.72405 9.02037 9.64276 9.1403 9.58457C9.26023 9.52638 9.39047 9.49244 9.52355 9.4847H9.52557ZM19.7704 9.4847C19.9034 9.49244 20.0337 9.52638 20.1536 9.58457C20.2735 9.64276 20.3808 9.72405 20.4692 9.82379C20.5577 9.92352 20.6256 10.0397 20.669 10.1658C20.7124 10.2918 20.7306 10.4251 20.7223 10.5582L19.7096 27.7746C19.7042 27.9092 19.672 28.0414 19.6149 28.1633C19.5578 28.2853 19.4769 28.3947 19.377 28.4851C19.2771 28.5754 19.1602 28.6449 19.0331 28.6895C18.9061 28.7342 18.7714 28.753 18.6369 28.7449C18.5025 28.7368 18.371 28.702 18.2502 28.6425C18.1293 28.5829 18.0216 28.4999 17.9332 28.3983C17.8449 28.2966 17.7777 28.1783 17.7356 28.0504C17.6936 27.9224 17.6774 27.7874 17.6882 27.6531L18.7009 10.4367C18.7166 10.1686 18.838 9.91781 19.0386 9.73929C19.2391 9.56078 19.5023 9.46921 19.7704 9.4847ZM14.648 9.4847C14.9166 9.4847 15.1742 9.5914 15.3641 9.78132C15.554 9.97125 15.6607 10.2288 15.6607 10.4974V27.7139C15.6607 27.9825 15.554 28.2401 15.3641 28.43C15.1742 28.6199 14.9166 28.7266 14.648 28.7266C14.3794 28.7266 14.1218 28.6199 13.9319 28.43C13.7419 28.2401 13.6352 27.9825 13.6352 27.7139V10.4974C13.6352 10.2288 13.7419 9.97125 13.9319 9.78132C14.1218 9.5914 14.3794 9.4847 14.648 9.4847Z" fill="white"/>
</svg>
