<svg width="32" height="31" viewBox="0 0 32 31" fill="none" xmlns="http://www.w3.org/2000/svg">
<path d="M0 5.5C0 5.5 0 0.75 4 0.75H28C28 0.75 32 0.75 32 5.5V19.75C32 19.75 32 24.5 28 24.5H20C20 26.0841 20.166 27.2716 20.5 28.0625H22C22.2652 28.0625 22.5196 28.1876 22.7071 28.4103C22.8946 28.633 23 28.9351 23 29.25C23 29.5649 22.8946 29.867 22.7071 30.0897C22.5196 30.3124 22.2652 30.4375 22 30.4375H10C9.73478 30.4375 9.48043 30.3124 9.29289 30.0897C9.10536 29.867 9 29.5649 9 29.25C9 28.9351 9.10536 28.633 9.29289 28.4103C9.48043 28.1876 9.73478 28.0625 10 28.0625H11.5C11.834 27.2716 12 26.0841 12 24.5H4C4 24.5 0 24.5 0 19.75V5.5ZM2.796 3.46937C2.57631 3.65101 2.40104 3.89847 2.288 4.18663C2.11752 4.60491 2.01958 5.05963 2 5.52375V19.75C2 20.5219 2.156 20.9423 2.29 21.1798C2.43 21.4291 2.63 21.6262 2.894 21.783C3.23107 21.9769 3.59634 22.0922 3.97 22.1226L4.02 22.125H28C28.65 22.125 29.004 21.9397 29.204 21.7806C29.4237 21.599 29.599 21.3515 29.712 21.0634C29.8753 20.6631 29.9724 20.2293 29.998 19.7856L30 19.7262V5.5C30 4.72813 29.844 4.30775 29.71 4.07025C29.5571 3.80929 29.3487 3.60114 29.106 3.467C28.7538 3.26455 28.3708 3.14825 27.98 3.125H4C3.35 3.125 2.996 3.31025 2.796 3.46937Z" fill="white"/>
</svg>
